# xmcd
#
# Track frame offsets: 
#        150
#        13340
#        23042
#        36160
#        49445
#        64190
#        76185
#        88045
#        101550
#        114505
#        125622
#        138887
#        151537
#        163962
#        181090
#        193010
#        204592
#        217962
#        231142
#        242200
#        256320
#        267320
#        283372
#        294487
#        306572
#        318592
#        330422
#        339402
#
# Disc length: 4669 seconds
#
# Revision: 0
# Processed by: cddbd v1.4PL0 Copyright (c) Steve Scherf et al.
# Submitted via: ExactAudioCopy v0.90b4
#
DISCID=9e123b1c
DTITLE=Jimmy Martin - Jimmy Martin, 1954 - 1974, Vol. 5
DYEAR=1994
DGENRE=Bluegrass
TTITLE0=Just An Old Standby - 1968
TTITLE1=Slowly - 1969
TTITLE2=Lonesome Prison Blues - 1969
TTITLE3=Shackles And Chains - 1960
TTITLE4=Doin' My Time - 1969
TTITLE5=Milwaukee Here I Come - 1969
TTITLE6=Arab Bounce - 1969
TTITLE7=Homesick - 1970
TTITLE8=(I've Got My) Future On Ice - 1970
TTITLE9=Midnight Rambler - 1972
TTITLE10=Between Fire And Water - 1974
TTITLE11=Singing All Day And Dinner On The Ground - 1970
TTITLE12=Lift Your Eyes To Jesus - 1970
TTITLE13=Shake Hands With Mother Again - 1970
TTITLE14=When The Savior Reached Down For Me - 1970
TTITLE15=Help Thy Brother - 1970
TTITLE16=My Lord Keeps A Record - 1970
TTITLE17=I'd Like To Be Sixteen Again - 1972
TTITLE18=I Cried Again - 1972
TTITLE19=Chattanooga Dog - 1972
TTITLE20=Mary Ann - 1973
TTITLE21=I Buried My Future - 1974
TTITLE22=Just Plain Yellow - 1973
TTITLE23=Fly Me To Frisco - 1973
TTITLE24=Grave Upon The Green Hillside - 1974
TTITLE25=Lost To A Stranger - 1974
TTITLE26=Beautiful Brown Eyes - 1974
TTITLE27=Your Are My Sunshine - 1974
EXTD=
EXTT0=
EXTT1=
EXTT2=
EXTT3=
EXTT4=
EXTT5=
EXTT6=
EXTT7=
EXTT8=
EXTT9=
EXTT10=
EXTT11=
EXTT12=
EXTT13=
EXTT14=
EXTT15=
EXTT16=
EXTT17=
EXTT18=
EXTT19=
EXTT20=
EXTT21=
EXTT22=
EXTT23=
EXTT24=
EXTT25=
EXTT26=
EXTT27=
PLAYORDER=
